<svg width="24" height="24" viewBox="0 0 24 24" fill="none" xmlns="http://www.w3.org/2000/svg">
<path fill-rule="evenodd" clip-rule="evenodd" d="M22.6666 16.6667C21 16.6667 19.3997 16.3997 17.9336 15.9336C17.4668 15.8001 16.9336 15.8666 16.6003 16.2669L13.6666 19.1999C9.8665 17.2669 6.80013 14.1999 4.8665 10.3997L7.80019 7.46681C8.13344 7.1335 8.26656 6.60031 8.13344 6.1335C7.59987 4.60031 7.33331 3 7.33331 1.33331C7.33331 0.60025 6.73338 0 6 0H1.33331C0.599937 0 0 0.60025 0 1.33331C0 13.8665 10.1335 24 22.6666 24C23.3997 24 24 23.3997 24 22.6667V18C24 17.2669 23.3997 16.6667 22.6666 16.6667Z" fill="#03A9F4"/>
</svg>
